<?xml version="1.0" encoding="iso-8859-1"?>
<!-- Generator: Adobe Illustrator 25.2.0, SVG Export Plug-In . SVG Version: 6.00 Build 0)  -->
<svg version="1.1" id="Layer_1" xmlns="http://www.w3.org/2000/svg" xmlns:xlink="http://www.w3.org/1999/xlink" x="0px" y="0px"
	 viewBox="0 0 128 128" style="enable-background:new 0 0 128 128;" xml:space="preserve">
<rect x="93.745" y="-32" style="display:none;fill:#3187C4;stroke:#000000;stroke-width:0.9606;stroke-miterlimit:10;" width="88.588" height="96"/>
<g>
	<rect style="fill:#3187C4;" width="128" height="128"/>
	<g>
		<g>
			<path style="fill:#FFFFFF;" d="M35.648,66.078c1.402-0.661,2.733-1.289,4.063-1.917c0.066,0.046,0.131,0.092,0.197,0.138
				c-1.124,3.67-2.248,7.34-3.423,11.179c-3.602-1.634-7.14-3.239-10.812-4.905c0.947-0.483,1.741-0.923,2.566-1.296
				c0.534-0.241,0.601-0.514,0.384-1.049c-1.547-3.819-2.245-7.797-2.087-11.915c0.139-3.624,1.007-7.085,2.429-10.409
				c0.237-0.555,0.18-0.746-0.411-0.982c-4.408-1.762-7.468-4.865-8.887-9.416c-1.998-6.408,0.721-13.465,6.151-16.947
				c3.054-1.958,6.787-2.993,10.404-2.385c1.563,0.263,3.078,0.811,4.448,1.609c1.442,0.84,2.601,1.988,3.787,3.145
				c0.342,0.334,0.581,0.472,1.031,0.309c0.679-0.246,1.377-0.439,2.239-0.708c-0.932,2.837-1.814,5.524-2.741,8.347
				c-2.484-1.481-4.875-2.905-7.384-4.401c0.633-0.289,1.126-0.514,1.72-0.786c-0.627-0.775-1.39-1.227-2.218-1.574
				c-3.726-1.562-8.312-0.049-10.789,3.547c-3.362,4.88-1.562,11.554,3.772,13.981c0.183,0.083,0.372,0.158,0.562,0.223
				c1.457,0.497,1.589,0.464,2.557-0.687c4.053-4.818,9.16-7.96,15.255-9.455c4.349-1.067,8.771-1.23,13.144-0.259
				c9.995,2.22,17.107,7.994,20.974,17.552c1.796,4.438,2.327,9.085,1.74,13.827c-0.206,1.667-0.681,3.304-1.106,4.936
				c-0.082,0.314-0.471,0.722-0.775,0.779c-3.277,0.606-6.268,1.884-9.147,3.637c0.156-0.231,0.308-0.465,0.469-0.692
				c3.047-4.318,4.253-9.155,3.666-14.352c-1.037-9.184-7.523-16.715-16.625-18.756c-11.83-2.652-22.66,3.834-26.225,14.451
				c-1.639,4.88-1.388,9.681,0.645,14.398C35.337,65.514,35.489,65.769,35.648,66.078z"/>
			<path style="fill:#FFFFFF;" d="M20.475,79.589c0.303,0,0.573,0,0.844,0c10.998,0,21.997-0.041,32.994,0.022
				c4.416,0.026,8.579-0.748,12.396-3.046c0.123-0.074,0.266-0.114,0.541-0.23c-0.177,0.298-0.274,0.483-0.392,0.654
				c-1.635,2.377-2.834,4.943-3.376,7.793c-0.078,0.408-0.252,0.674-0.722,0.728c-2.2,0.254-4.395,0.751-6.595,0.767
				c-11.655,0.08-23.311,0.038-34.966,0.052c-0.565,0.001-0.812-0.129-0.799-0.756c0.038-1.769,0.012-3.539,0.016-5.309
				C20.416,80.068,20.449,79.871,20.475,79.589z"/>
			<circle style="fill:#FFFFFF;" cx="87.746" cy="90.758" r="21.242"/>
			<path style="fill:#181C57;" d="M83.742,94.096c3.775-3.886,7.472-7.69,11.166-11.496c0.844-0.87,1.666-1.762,2.524-2.618
				c0.985-0.983,2.496-0.969,3.462,0c0.955,0.958,0.937,2.238-0.045,3.296c-0.326,0.351-0.648,0.705-0.979,1.052
				c-4.745,4.965-9.494,9.926-14.233,14.896c-1.216,1.276-2.523,1.401-3.756,0.198c-2.44-2.381-4.849-4.796-7.238-7.229
				c-1.02-1.039-0.979-2.469,0.003-3.457c0.949-0.955,2.457-0.973,3.472-0.007c1.664,1.585,3.309,3.192,4.965,4.786
				C83.278,93.705,83.491,93.877,83.742,94.096z"/>
		</g>
	</g>
</g>
<g>
	<g>
		<path style="fill:#FFFFFF;" d="M35.648,66.078c1.402-0.661,2.733-1.289,4.063-1.917c0.066,0.046,0.131,0.092,0.197,0.138
			c-1.124,3.67-2.248,7.34-3.423,11.179c-3.602-1.634-7.14-3.239-10.812-4.905c0.947-0.483,1.741-0.923,2.566-1.296
			c0.534-0.241,0.601-0.514,0.384-1.049c-1.547-3.819-2.245-7.797-2.087-11.915c0.139-3.624,1.007-7.085,2.429-10.409
			c0.237-0.555,0.18-0.746-0.411-0.982c-4.408-1.762-7.468-4.865-8.887-9.416c-1.998-6.408,0.721-13.465,6.151-16.947
			c3.054-1.958,6.787-2.993,10.404-2.385c1.563,0.263,3.078,0.811,4.448,1.609c1.442,0.84,2.601,1.988,3.787,3.145
			c0.342,0.334,0.581,0.472,1.031,0.309c0.679-0.246,1.377-0.439,2.239-0.708c-0.932,2.837-1.814,5.524-2.741,8.347
			c-2.484-1.481-4.875-2.905-7.384-4.401c0.633-0.289,1.126-0.514,1.72-0.786c-0.627-0.775-1.39-1.227-2.218-1.574
			c-3.726-1.562-8.312-0.049-10.789,3.547c-3.362,4.88-1.562,11.554,3.772,13.981c0.183,0.083,0.372,0.158,0.562,0.223
			c1.457,0.497,1.589,0.464,2.557-0.687c4.053-4.818,9.16-7.96,15.255-9.455c4.349-1.067,8.771-1.23,13.144-0.259
			c9.995,2.22,17.107,7.994,20.974,17.552c1.796,4.438,2.327,9.085,1.74,13.827c-0.206,1.667-0.681,3.304-1.106,4.936
			c-0.082,0.314-0.471,0.722-0.775,0.779c-3.277,0.606-6.268,1.884-9.147,3.637c0.156-0.231,0.308-0.465,0.469-0.692
			c3.047-4.318,4.253-9.155,3.666-14.352c-1.037-9.184-7.523-16.715-16.625-18.756c-11.83-2.652-22.66,3.834-26.225,14.451
			c-1.639,4.88-1.388,9.681,0.645,14.398C35.337,65.514,35.489,65.769,35.648,66.078z"/>
		<path style="fill:#FFFFFF;" d="M20.475,79.589c0.303,0,0.573,0,0.844,0c10.998,0,21.997-0.041,32.994,0.022
			c4.416,0.026,8.579-0.748,12.396-3.046c0.123-0.074,0.266-0.114,0.541-0.23c-0.177,0.298-0.274,0.483-0.392,0.654
			c-1.635,2.377-2.834,4.943-3.376,7.793c-0.078,0.408-0.252,0.674-0.722,0.728c-2.2,0.254-4.395,0.751-6.595,0.767
			c-11.655,0.08-23.311,0.038-34.966,0.052c-0.565,0.001-0.812-0.129-0.799-0.756c0.038-1.769,0.012-3.539,0.016-5.309
			C20.416,80.068,20.449,79.871,20.475,79.589z"/>
		<circle style="fill:#FFFFFF;" cx="87.746" cy="90.758" r="21.242"/>
		<path style="fill:#181C57;" d="M83.742,94.096c3.775-3.886,7.472-7.69,11.166-11.496c0.844-0.87,1.666-1.762,2.524-2.618
			c0.985-0.983,2.496-0.969,3.462,0c0.955,0.958,0.937,2.238-0.045,3.296c-0.326,0.351-0.648,0.705-0.979,1.052
			c-4.745,4.965-9.494,9.926-14.233,14.896c-1.216,1.276-2.523,1.401-3.756,0.198c-2.44-2.381-4.849-4.796-7.238-7.229
			c-1.02-1.039-0.979-2.469,0.003-3.457c0.949-0.955,2.457-0.973,3.472-0.007c1.664,1.585,3.309,3.192,4.965,4.786
			C83.278,93.705,83.491,93.877,83.742,94.096z"/>
	</g>
</g>
</svg>
